<svg width="34" height="26" viewBox="0 0 34 26" fill="none" xmlns="http://www.w3.org/2000/svg">
<path fill-rule="evenodd" clip-rule="evenodd" d="M14.016 25.2C11.232 25.2 8.784 24.688 6.672 23.664C4.56 22.608 2.912 21.168 1.728 19.344C0.576 17.488 0 15.344 0 12.912C0 10.224 0.56 7.92 1.68 6C2.8 4.08 4.288 2.608 6.144 1.584C8.032 0.528 10.112 0 12.384 0C14.976 0 17.136 0.544 18.864 1.632C20.624 2.72 21.952 4.208 22.848 6.096C23.744 7.952 24.192 10.08 24.192 12.48C24.192 12.896 24.16 13.392 24.096 13.968C24.064 14.512 24.016 14.944 23.952 15.264H7.824C8.016 16.096 8.384 16.8 8.928 17.376C9.472 17.952 10.16 18.384 10.992 18.672C11.824 18.928 12.752 19.056 13.776 19.056H21.312V25.2H14.016ZM8.064 8.928C7.872 9.472 7.728 10.032 7.632 10.608H16.992C16.928 10.096 16.832 9.6 16.704 9.12C16.576 8.64 16.368 8.224 16.08 7.872C15.824 7.488 15.52 7.168 15.168 6.912C14.816 6.624 14.4 6.4 13.92 6.24C13.472 6.08 12.96 6 12.384 6C11.648 6 10.992 6.128 10.416 6.384C9.84 6.64 9.36 6.992 8.976 7.44C8.592 7.856 8.288 8.352 8.064 8.928ZM28.8 21.776C27.52 21.776 26.416 21.328 25.488 20.432C24.592 19.504 24.144 18.416 24.144 17.168C24.144 15.888 24.592 14.8 25.488 13.904C26.416 12.976 27.52 12.512 28.8 12.512C30.048 12.512 31.12 12.976 32.016 13.904C32.944 14.8 33.408 15.888 33.408 17.168C33.408 18 33.2 18.768 32.784 19.472C32.368 20.176 31.808 20.736 31.104 21.152C30.432 21.568 29.664 21.776 28.8 21.776Z" fill="#0752E6"/>
</svg>
