<svg width="62" height="19" viewBox="0 0 62 19" fill="none" xmlns="http://www.w3.org/2000/svg">
<path d="M7.728 18C6.336 18 5.12 17.736 4.08 17.208C3.056 16.664 2.256 15.928 1.68 15C1.12 14.072 0.84 13.032 0.84 11.88C0.84 10.584 1.104 9.456 1.632 8.496C2.16 7.536 2.88 6.792 3.792 6.264C4.704 5.736 5.736 5.472 6.888 5.472C8.264 5.472 9.376 5.76 10.224 6.336C11.088 6.912 11.72 7.688 12.12 8.664C12.52 9.624 12.72 10.696 12.72 11.88C12.72 12.04 12.712 12.232 12.696 12.456C12.68 12.664 12.656 12.824 12.624 12.936H4.344C4.472 13.432 4.688 13.848 4.992 14.184C5.312 14.52 5.704 14.776 6.168 14.952C6.648 15.112 7.184 15.192 7.776 15.192H11.184V18H7.728ZM4.32 10.728H9.432C9.4 10.424 9.344 10.144 9.264 9.888C9.184 9.616 9.072 9.376 8.928 9.168C8.784 8.96 8.616 8.784 8.424 8.64C8.232 8.496 8.008 8.384 7.752 8.304C7.496 8.224 7.216 8.184 6.912 8.184C6.512 8.184 6.152 8.256 5.832 8.4C5.528 8.544 5.272 8.736 5.064 8.976C4.856 9.216 4.688 9.488 4.56 9.792C4.448 10.096 4.368 10.408 4.32 10.728ZM15.0846 18V15.192H21.0606C21.2526 15.192 21.4206 15.152 21.5646 15.072C21.7246 14.992 21.8446 14.88 21.9246 14.736C22.0206 14.592 22.0686 14.432 22.0686 14.256C22.0686 14.064 22.0206 13.896 21.9246 13.752C21.8446 13.608 21.7246 13.496 21.5646 13.416C21.4206 13.32 21.2526 13.272 21.0606 13.272H18.7566C17.9726 13.272 17.2606 13.152 16.6206 12.912C15.9966 12.656 15.4926 12.256 15.1086 11.712C14.7406 11.152 14.5566 10.424 14.5566 9.528C14.5566 8.84 14.7246 8.216 15.0606 7.656C15.4126 7.08 15.8766 6.624 16.4526 6.288C17.0446 5.936 17.6926 5.76 18.3966 5.76H24.1326V8.568H18.7086C18.4686 8.568 18.2526 8.648 18.0606 8.808C17.8846 8.968 17.7966 9.176 17.7966 9.432C17.7966 9.688 17.8846 9.904 18.0606 10.08C18.2366 10.24 18.4526 10.32 18.7086 10.32H21.0126C21.8926 10.32 22.6526 10.456 23.2926 10.728C23.9326 10.984 24.4286 11.392 24.7806 11.952C25.1326 12.512 25.3086 13.248 25.3086 14.16C25.3086 14.864 25.1326 15.512 24.7806 16.104C24.4286 16.68 23.9566 17.144 23.3646 17.496C22.7726 17.832 22.1086 18 21.3726 18H15.0846ZM32.7043 18.288C31.5843 18.288 30.6083 18 29.7763 17.424C28.9443 16.848 28.2963 16.08 27.8323 15.12C27.3843 14.144 27.1603 13.072 27.1603 11.904C27.1603 10.704 27.4163 9.616 27.9283 8.64C28.4563 7.664 29.2083 6.896 30.1843 6.336C31.1603 5.76 32.3283 5.472 33.6883 5.472C35.0643 5.472 36.2243 5.76 37.1683 6.336C38.1123 6.912 38.8323 7.688 39.3283 8.664C39.8243 9.64 40.0723 10.72 40.0723 11.904V18H36.7843V15.96H36.7363C36.4963 16.392 36.1923 16.784 35.8243 17.136C35.4723 17.488 35.0403 17.768 34.5283 17.976C34.0163 18.184 33.4083 18.288 32.7043 18.288ZM33.6403 15.48C34.2803 15.48 34.8323 15.32 35.2963 15C35.7603 14.68 36.1123 14.248 36.3523 13.704C36.6083 13.144 36.7363 12.528 36.7363 11.856C36.7363 11.184 36.6083 10.584 36.3523 10.056C36.1123 9.512 35.7603 9.08 35.2963 8.76C34.8323 8.44 34.2803 8.28 33.6403 8.28C32.9843 8.28 32.4163 8.44 31.9363 8.76C31.4723 9.08 31.1123 9.512 30.8563 10.056C30.6163 10.584 30.4963 11.184 30.4963 11.856C30.4963 12.528 30.6163 13.144 30.8563 13.704C31.1123 14.248 31.4723 14.68 31.9363 15C32.4163 15.32 32.9843 15.48 33.6403 15.48ZM43.185 18V0.48H46.473V10.44H48.417L51.369 5.76H54.969L51.609 10.944C52.649 11.376 53.457 12.04 54.033 12.936C54.609 13.832 54.897 14.832 54.897 15.936V18H51.609V15.936C51.609 15.44 51.481 14.992 51.225 14.592C50.985 14.176 50.665 13.848 50.265 13.608C49.865 13.368 49.417 13.248 48.921 13.248H46.473V18H43.185ZM57.5288 18V5.76H60.8408V18H57.5288ZM59.1848 4.296C58.6248 4.296 58.1368 4.096 57.7208 3.696C57.3208 3.28 57.1208 2.792 57.1208 2.232C57.1208 1.672 57.3208 1.192 57.7208 0.792C58.1368 0.375999 58.6248 0.167999 59.1848 0.167999C59.7448 0.167999 60.2248 0.375999 60.6248 0.792C61.0408 1.192 61.2488 1.672 61.2488 2.232C61.2488 2.792 61.0408 3.28 60.6248 3.696C60.2248 4.096 59.7448 4.296 59.1848 4.296Z" fill="black"/>
</svg>
