<svg width="101" height="26" viewBox="0 0 101 26" fill="none" xmlns="http://www.w3.org/2000/svg">
<path fill-rule="evenodd" clip-rule="evenodd" d="M6.672 23.664C8.784 24.688 11.232 25.2 14.016 25.2H21.312V19.056H13.776C12.752 19.056 11.824 18.928 10.992 18.672C10.16 18.384 9.472 17.952 8.928 17.376C8.384 16.8 8.016 16.096 7.824 15.264H23.952C24.016 14.944 24.064 14.512 24.096 13.968C24.16 13.392 24.192 12.896 24.192 12.48C24.192 10.08 23.744 7.952 22.848 6.096C21.952 4.208 20.624 2.72 18.864 1.632C17.136 0.544 14.976 0 12.384 0C10.112 0 8.032 0.528 6.144 1.584C4.288 2.608 2.8 4.08 1.68 6C0.56 7.92 0 10.224 0 12.912C0 15.344 0.576 17.488 1.728 19.344C2.912 21.168 4.56 22.608 6.672 23.664ZM7.632 10.608C7.728 10.032 7.872 9.472 8.064 8.928C8.288 8.352 8.592 7.856 8.976 7.44C9.36 6.992 9.84 6.64 10.416 6.384C10.992 6.128 11.648 6 12.384 6C12.96 6 13.472 6.08 13.92 6.24C14.4 6.4 14.816 6.624 15.168 6.912C15.52 7.168 15.824 7.488 16.08 7.872C16.368 8.224 16.576 8.64 16.704 9.12C16.832 9.6 16.928 10.096 16.992 10.608H7.632ZM25.488 20.432C26.416 21.328 27.52 21.776 28.8 21.776C29.664 21.776 30.432 21.568 31.104 21.152C31.808 20.736 32.368 20.176 32.784 19.472C33.2 18.768 33.408 18 33.408 17.168C33.408 15.888 32.944 14.8 32.016 13.904C31.12 12.976 30.048 12.512 28.8 12.512C27.52 12.512 26.416 12.976 25.488 13.904C24.592 14.8 24.144 15.888 24.144 17.168C24.144 18.416 24.592 19.504 25.488 20.432ZM43.448 21.408C44.488 21.936 45.704 22.2 47.096 22.2H50.552V19.392H47.144C46.552 19.392 46.016 19.312 45.536 19.152C45.072 18.976 44.68 18.72 44.36 18.384C44.056 18.048 43.84 17.632 43.712 17.136H51.992C52.024 17.024 52.048 16.864 52.064 16.656C52.08 16.432 52.088 16.24 52.088 16.08C52.088 14.896 51.888 13.824 51.488 12.864C51.088 11.888 50.456 11.112 49.592 10.536C48.744 9.95995 47.632 9.67195 46.256 9.67195C45.104 9.67195 44.072 9.93595 43.16 10.464C42.248 10.992 41.528 11.736 41 12.696C40.472 13.656 40.208 14.784 40.208 16.08C40.208 17.232 40.488 18.272 41.048 19.2C41.624 20.128 42.424 20.864 43.448 21.408ZM48.8 14.928H43.688C43.736 14.608 43.816 14.296 43.928 13.992C44.056 13.688 44.224 13.416 44.432 13.176C44.64 12.936 44.896 12.744 45.2 12.6C45.52 12.456 45.88 12.384 46.28 12.384C46.584 12.384 46.864 12.424 47.12 12.504C47.376 12.584 47.6 12.696 47.792 12.84C47.984 12.984 48.152 13.16 48.296 13.368C48.44 13.576 48.552 13.816 48.632 14.088C48.712 14.344 48.768 14.624 48.8 14.928ZM54.4526 19.392V22.2H60.7406C61.4766 22.2 62.1406 22.032 62.7326 21.696C63.3246 21.344 63.7966 20.88 64.1486 20.304C64.5006 19.712 64.6766 19.064 64.6766 18.36C64.6766 17.448 64.5006 16.712 64.1486 16.152C63.7966 15.592 63.3006 15.184 62.6606 14.928C62.0206 14.656 61.2606 14.52 60.3806 14.52H58.0766C57.8206 14.52 57.6046 14.44 57.4286 14.28C57.2526 14.104 57.1646 13.888 57.1646 13.632C57.1646 13.376 57.2526 13.168 57.4286 13.008C57.6206 12.848 57.8366 12.768 58.0766 12.768H63.5006V9.95995H57.7646C57.0606 9.95995 56.4126 10.136 55.8206 10.488C55.2446 10.824 54.7806 11.28 54.4286 11.856C54.0926 12.416 53.9246 13.04 53.9246 13.728C53.9246 14.624 54.1086 15.352 54.4766 15.912C54.8606 16.456 55.3646 16.856 55.9886 17.1119C56.6286 17.352 57.3406 17.472 58.1246 17.472H60.4286C60.6206 17.472 60.7886 17.52 60.9326 17.616C61.0926 17.696 61.2126 17.808 61.2926 17.952C61.3886 18.096 61.4366 18.264 61.4366 18.456C61.4366 18.632 61.3886 18.792 61.2926 18.936C61.2126 19.08 61.0926 19.192 60.9326 19.272C60.7886 19.352 60.6206 19.392 60.4286 19.392H54.4526ZM69.1444 21.624C69.9764 22.2 70.9524 22.488 72.0724 22.488C72.7764 22.488 73.3844 22.384 73.8964 22.176C74.4084 21.968 74.8404 21.688 75.1924 21.336C75.5604 20.984 75.8644 20.592 76.1044 20.16H76.1524V22.2H79.4404V16.104C79.4404 14.92 79.1924 13.84 78.6964 12.864C78.2004 11.888 77.4804 11.112 76.5364 10.536C75.5924 9.95995 74.4324 9.67195 73.0564 9.67195C71.6964 9.67195 70.5284 9.95995 69.5524 10.536C68.5764 11.096 67.8244 11.864 67.2964 12.84C66.7844 13.816 66.5284 14.904 66.5284 16.104C66.5284 17.272 66.7524 18.344 67.2004 19.32C67.6644 20.28 68.3124 21.048 69.1444 21.624ZM74.6644 19.2C74.2004 19.52 73.6484 19.68 73.0084 19.68C72.3524 19.68 71.7844 19.52 71.3044 19.2C70.8404 18.88 70.4804 18.448 70.2244 17.904C69.9844 17.344 69.8644 16.728 69.8644 16.056C69.8644 15.384 69.9844 14.784 70.2244 14.256C70.4804 13.712 70.8404 13.28 71.3044 12.96C71.7844 12.64 72.3524 12.4799 73.0084 12.4799C73.6484 12.4799 74.2004 12.64 74.6644 12.96C75.1284 13.28 75.4804 13.712 75.7204 14.256C75.9764 14.784 76.1044 15.384 76.1044 16.056C76.1044 16.728 75.9764 17.344 75.7204 17.904C75.4804 18.448 75.1284 18.88 74.6644 19.2ZM82.553 4.67995V22.2H85.841V17.448H88.289C88.785 17.448 89.233 17.568 89.633 17.808C90.033 18.048 90.353 18.376 90.593 18.792C90.849 19.192 90.977 19.64 90.977 20.136V22.2H94.265V20.136C94.265 19.032 93.977 18.032 93.401 17.136C92.825 16.24 92.017 15.576 90.977 15.144L94.337 9.95995H90.737L87.785 14.64H85.841V4.67995H82.553ZM97.0888 7.89595C97.5048 8.29595 97.9928 8.49595 98.5528 8.49595C99.1128 8.49595 99.5928 8.29595 99.9928 7.89595C100.409 7.47995 100.617 6.99195 100.617 6.43195C100.617 5.87195 100.409 5.39195 99.9928 4.99195C99.5928 4.57595 99.1128 4.36795 98.5528 4.36795C97.9928 4.36795 97.5048 4.57595 97.0888 4.99195C96.6888 5.39195 96.4888 5.87195 96.4888 6.43195C96.4888 6.99195 96.6888 7.47995 97.0888 7.89595ZM96.8968 9.95995V22.2H100.209V9.95995H96.8968Z" fill="#0752E6"/>
</svg>
